<svg width="106" height="41" viewBox="0 0 106 41" fill="none" xmlns="http://www.w3.org/2000/svg">
<g clip-path="url(#clip0)">
<path d="M51.2313 5.61105V22.9321H45.8643V5.61105H51.2313Z" fill="white"/>
<path d="M67.4546 18.7848V22.9321H54.4028V5.61105H67.4546V9.63637H59.6479V12.1979H65.9909V15.9793H59.6479V18.7848H67.4546Z" fill="white"/>
<path d="M69.6501 22.9321V5.61106H76.359C78.7986 5.36711 81.2382 6.34294 82.9459 8.17263C84.4096 9.88034 85.1415 11.954 85.1415 14.1496C85.2635 16.4672 84.4096 18.7848 82.8239 20.4925C81.2382 22.2002 79.0426 23.0541 76.7249 22.9321H69.6501ZM75.0172 18.9068H76.359C77.2129 18.9068 78.0667 18.4189 78.5546 17.687C79.1645 16.5892 79.5305 15.3694 79.4085 14.1496C79.4085 13.0518 79.1645 11.832 78.5546 10.8562C78.0667 10.0023 77.2129 9.5144 76.237 9.5144H74.8953V18.9068H75.0172Z" fill="white"/>
<path d="M4.02528 22.8101L14.6375 1.70771V1.2198C14.6375 0.48792 14.0276 3.07709e-06 13.2957 0.121982C12.8078 0.121982 12.4419 0.365941 12.3199 0.853858L0.121948 25.8596C-0.122011 26.4695 0.243927 27.2014 0.853823 27.4453C1.21976 27.5673 1.5857 27.5673 1.95164 27.3234L13.9056 19.3947C13.5397 18.6628 13.2957 17.809 13.0518 16.9551L4.02528 22.8101Z" fill="white"/>
<path d="M36.2277 5.3671L39.0333 2.07366C39.3992 1.58574 39.3992 0.731885 38.9113 0.365948C38.5453 9.6336e-06 37.9354 9.6336e-06 37.4475 0.243968L33.5442 2.80553C34.642 3.53741 35.4959 4.39126 36.2277 5.3671Z" fill="white"/>
<path d="M14.7596 26.9574C14.3936 27.5673 14.5156 28.2992 15.1255 28.6652C15.6134 28.9091 16.1013 28.9091 16.5892 28.6652L19.3948 25.3717C18.6629 25.0058 18.053 24.5179 17.4431 23.908L14.7596 26.9574Z" fill="white"/>
<path d="M19.2727 25.3717C21.2244 26.5915 23.542 27.2014 25.8596 27.2014C33.3003 27.0794 39.1553 20.9804 39.1553 13.6617C39.1553 10.7342 38.0575 7.80668 36.2278 5.48907L19.2727 25.3717Z" fill="white"/>
<path d="M25.8597 0.365936C18.541 0.365936 12.564 6.4649 12.564 13.7837C12.564 14.7595 12.6859 15.8573 12.9299 16.8331L33.6664 2.80552C31.3488 1.21979 28.6652 0.365936 25.8597 0.365936Z" fill="white"/>
<path d="M13.7837 19.2727C14.6375 21.1024 15.7354 22.6881 17.1991 23.9079L30.6168 7.92865L13.7837 19.2727Z" fill="white"/>
<path d="M52.2071 32.8124L50.3774 33.4223C50.1334 32.6904 49.5235 32.2025 48.7917 32.3245C47.9378 32.3245 47.4499 32.5685 47.4499 33.1784C47.4499 33.4223 47.5719 33.5443 47.6939 33.7883C48.0598 34.0322 48.4257 34.1542 48.7917 34.1542C49.5235 34.2762 50.2554 34.5201 50.8653 34.7641C51.3532 35.0081 51.7192 35.252 51.9631 35.7399C52.2071 36.1059 52.4511 36.5938 52.4511 37.2037C52.4511 38.0575 52.0851 38.7894 51.4752 39.3993C50.6214 40.1312 49.6455 40.3751 48.5477 40.3751C47.6939 40.3751 46.84 40.1312 46.1081 39.7652C45.3763 39.2773 45.0103 38.6674 44.7664 37.8136L46.84 37.3257C47.084 38.1795 47.8158 38.7894 48.7917 38.6674C49.1576 38.6674 49.5236 38.5455 49.8895 38.4235C50.1334 38.3015 50.2554 38.0575 50.2554 37.6916C50.2554 37.4476 50.1334 37.2037 49.8895 37.0817C49.5236 36.8377 49.0356 36.7158 48.5477 36.7158C47.5719 36.5938 46.718 36.2278 45.9862 35.7399C45.4982 35.252 45.1323 34.6421 45.1323 33.9102C45.1323 33.0564 45.4982 32.3245 45.9862 31.8366C46.718 31.2267 47.5719 30.9827 48.4257 30.9827C50.1334 30.3728 51.5972 31.3487 52.2071 32.8124Z" fill="white"/>
<path d="M59.7697 40.1312H57.818C57.696 39.7652 57.696 39.3993 57.696 39.0334C57.4521 39.3993 57.0861 39.7652 56.7202 40.0092C56.3543 40.1312 55.8663 40.2532 55.5004 40.2532C54.8905 40.2532 54.4026 40.1312 53.9147 39.7652C53.5487 39.3993 53.3048 38.9114 53.4267 38.3015C53.4267 37.8136 53.5487 37.4476 53.7927 37.0817C54.0366 36.7158 54.4026 36.3498 54.8905 36.2278C55.7444 35.9839 56.7202 35.7399 57.696 35.7399V35.374C57.818 34.8861 57.4521 34.3982 56.9642 34.3982C56.8422 34.3982 56.8422 34.3982 56.7202 34.3982C56.1103 34.2762 55.6224 34.7641 55.5004 35.252V35.374L53.6707 35.13C53.7927 34.3981 54.1586 33.7883 54.7685 33.4223C55.3784 33.0564 56.1103 32.9344 56.8422 32.9344C57.3301 32.9344 57.696 32.9344 58.1839 33.0564C58.5499 33.1784 58.9158 33.3003 59.1598 33.5443C59.4037 33.7883 59.5257 34.0322 59.6477 34.2762C59.7697 34.6421 59.7697 35.13 59.7697 35.496V38.6674C59.6477 39.1553 59.6477 39.6433 59.7697 40.1312ZM59.1598 31.1047C58.7938 31.5926 58.3059 31.9586 57.696 31.9586C57.3301 31.9586 56.9642 31.8366 56.5982 31.5926C56.4762 31.4706 56.2323 31.4706 55.9883 31.4706C55.6224 31.4706 55.3784 31.7146 55.1345 31.9586L54.5246 31.2267C54.8905 30.7388 55.3784 30.4948 55.9883 30.4948C56.3543 30.4948 56.7202 30.6168 56.9642 30.7388C57.2081 30.8608 57.3301 30.8608 57.574 30.9827C57.94 30.9827 58.3059 30.7388 58.5499 30.3728L59.1598 31.1047ZM57.574 36.8377C56.1103 36.9597 55.3784 37.4476 55.3784 38.1795C55.3784 38.4235 55.5004 38.6674 55.6224 38.7894C55.7444 39.0334 55.9883 39.0334 56.2323 39.0334C56.5982 39.0334 56.9641 38.9114 57.0861 38.5454C57.3301 38.1795 57.4521 37.8136 57.4521 37.4476L57.574 36.8377Z" fill="white"/>
<path d="M64.2831 33.0564C65.259 33.0564 66.1128 33.4223 66.7227 34.0322C67.3326 34.7641 67.6985 35.618 67.5766 36.5938C67.5766 37.5696 67.3326 38.4235 66.6007 39.1554C65.9908 39.8872 65.137 40.2532 64.1611 40.1312C63.3073 40.1312 62.3315 39.7653 61.8435 39.1554C61.2336 38.4235 60.8677 37.4477 60.9897 36.5938C60.9897 35.9839 61.1117 35.252 61.3556 34.7641C61.5996 34.2762 61.9655 33.9103 62.4534 33.5443C62.9413 33.1784 63.5512 33.0564 64.2831 33.0564ZM64.2831 34.3982C63.9172 34.3982 63.5512 34.5201 63.4293 34.8861C63.1853 35.496 63.0633 36.1059 63.1853 36.7158C63.1853 37.3257 63.3073 37.9356 63.5512 38.4235C63.6732 38.7894 64.0392 39.0334 64.4051 38.9114C64.771 38.9114 65.015 38.7894 65.259 38.4235C65.5029 37.9356 65.6249 37.3257 65.6249 36.7158C65.6249 36.1059 65.6249 35.496 65.3809 34.8861C64.893 34.5201 64.6491 34.3982 64.2831 34.3982Z" fill="white"/>
<path d="M74.6514 36.5938V40.0092H72.4558V30.6168H76.1152C76.7251 30.6168 77.457 30.7388 78.0669 30.8608C78.5548 31.1047 78.9207 31.3487 79.2866 31.8366C79.6526 32.3245 79.7746 32.9344 79.7746 33.5443C79.7746 34.0322 79.6526 34.5202 79.4086 34.8861C79.2866 35.252 79.0427 35.618 78.6768 35.8619C78.4328 36.1059 78.0669 36.2279 77.7009 36.3498C77.213 36.5938 76.7251 36.5938 76.2372 36.5938H74.6514ZM74.6514 34.8861H76.1152C76.4811 34.8861 76.969 34.7641 77.213 34.5202C77.457 34.2762 77.5789 34.0322 77.5789 33.6663C77.5789 33.3004 77.457 33.0564 77.213 32.8124C76.8471 32.5685 76.4811 32.4465 76.1152 32.4465H74.6514V34.8861Z" fill="white"/>
<path d="M86.8493 40.1312H84.8976C84.7756 39.7653 84.7756 39.3993 84.7756 39.0334C84.5317 39.3993 84.1657 39.7653 83.7998 40.0092C83.4338 40.1312 82.9459 40.2532 82.58 40.2532C81.9701 40.2532 81.4822 40.1312 80.9943 39.7653C80.6283 39.3993 80.3844 38.9114 80.5063 38.3015C80.5063 37.8136 80.6283 37.4476 80.8723 37.0817C81.1162 36.7158 81.4822 36.3498 81.9701 36.2279C82.8239 35.9839 83.7998 35.7399 84.7756 35.7399V35.374C84.8976 34.8861 84.5317 34.3982 84.0437 34.3982C83.9218 34.3982 83.9218 34.3982 83.7998 34.3982C83.1899 34.2762 82.702 34.7641 82.58 35.252V35.374L80.7503 35.252C80.8723 34.5201 81.2382 33.9103 81.8481 33.5443C82.458 33.1784 83.1899 33.0564 83.9218 33.0564C84.4097 33.0564 84.7756 33.0564 85.2635 33.1784C85.6295 33.3004 85.9954 33.4223 86.2394 33.6663C86.4833 33.9103 86.6053 34.1542 86.7273 34.3982C86.8493 34.7641 86.8493 35.252 86.8493 35.618V38.7894C86.7273 39.1554 86.7273 39.6433 86.8493 40.1312ZM84.6536 36.8378C83.1899 36.9597 82.458 37.4476 82.458 38.1795C82.458 38.4235 82.58 38.6674 82.702 38.7894C82.8239 39.0334 83.0679 39.0334 83.3119 39.0334C83.6778 39.0334 84.0437 38.9114 84.1657 38.5455C84.4097 38.1795 84.5317 37.8136 84.5317 37.4477L84.6536 36.8378Z" fill="white"/>
<path d="M94.2901 33.1784V40.1312H92.3385V38.9114C92.0945 39.7653 91.2406 40.3752 90.2648 40.2532C89.7769 40.2532 89.411 40.1312 89.045 40.0092C88.8011 39.7653 88.5571 39.5213 88.4351 39.1554C88.3131 38.6674 88.1912 38.1795 88.1912 37.6916V33.1784H90.1428V37.6916C90.1428 38.3015 90.3868 38.6674 90.8747 38.6674C91.1187 38.6674 91.3626 38.5455 91.6066 38.4235C91.7286 38.3015 91.8505 38.1795 91.9725 37.9356C92.0945 37.6916 92.0945 37.3257 92.0945 37.0817V33.1784H94.2901Z" fill="white"/>
<path d="M95.9976 40.1312V30.7388H98.0712V40.1312H95.9976Z" fill="white"/>
<path d="M102.585 33.0564C103.56 33.0564 104.414 33.4223 105.024 34.0322C105.634 34.7641 106 35.618 105.878 36.5938C105.878 37.5696 105.634 38.4235 104.902 39.1554C104.292 39.8872 103.438 40.2532 102.463 40.1312C101.609 40.1312 100.633 39.7653 100.145 39.1554C99.5351 38.4235 99.1692 37.4477 99.2912 36.5938C99.2912 35.9839 99.4132 35.252 99.6571 34.7641C99.9011 34.2762 100.267 33.9103 100.755 33.5443C101.365 33.1784 101.975 33.0564 102.585 33.0564ZM102.585 34.3982C102.219 34.3982 101.853 34.5201 101.731 34.8861C101.487 35.496 101.365 36.1059 101.487 36.7158C101.487 37.3257 101.609 37.9356 101.853 38.4235C101.975 38.7894 102.341 39.0334 102.707 38.9114C103.073 38.9114 103.317 38.7894 103.56 38.4235C103.804 37.9356 103.926 37.3257 103.804 36.7158C103.804 36.1059 103.804 35.496 103.56 34.8861C103.317 34.5201 103.073 34.3982 102.585 34.3982Z" fill="white"/>
</g>
<defs>
<clipPath id="clip0">
<rect width="106" height="40.2532" fill="white"/>
</clipPath>
</defs>
</svg>
